<?xml version="1.0" encoding="UTF-8"?><svg id="b" xmlns="http://www.w3.org/2000/svg" viewBox="0 0 390 430"><polygon points="194.32 225.73 33.4 241.44 61.68 253.83 234.68 237.43 194.32 225.73" fill="#f9b728" stroke="#231f20" stroke-linecap="round" stroke-linejoin="round" stroke-width="1.5"/><polygon points="93.26 245.48 80.48 240.13 79.09 225.52 91.57 227.65 93.26 245.48" fill="#f9b728" stroke="#231f20" stroke-linecap="round" stroke-linejoin="round" stroke-width="1.5"/><rect x="92.22" y="223.36" width="90.16" height="17.91" transform="translate(-21.32 14) rotate(-5.42)" fill="#f0f4da" stroke="#231f20" stroke-linecap="round" stroke-linejoin="round" stroke-width="1.5"/><polygon points="37.08 107.72 10.16 125.18 17.16 199.01 45.74 210.36 37.08 107.72" fill="#f9b728" stroke="#231f20" stroke-linecap="round" stroke-linejoin="round" stroke-width="1.5"/><polygon points="60.57 242.19 32.4 230.86 18.96 89.18 44.6 73.76 60.57 242.19" fill="#f9b728" stroke="#231f20" stroke-linecap="round" stroke-linejoin="round" stroke-width="1.5"/><line x1="24.89" y1="97.18" x2="39.81" y2="88.2" fill="#f0f4da" stroke="#231f20" stroke-linecap="round" stroke-linejoin="round" stroke-width="1.5"/><line x1="25.67" y1="105.4" x2="40.59" y2="96.43" fill="#f0f4da" stroke="#231f20" stroke-linecap="round" stroke-linejoin="round" stroke-width="1.5"/><line x1="26.45" y1="113.63" x2="41.37" y2="104.65" fill="#f0f4da" stroke="#231f20" stroke-linecap="round" stroke-linejoin="round" stroke-width="1.5"/><rect x="52.2" y="65.18" width="173.77" height="169.19" transform="translate(-13.52 13.8) rotate(-5.42)" fill="#f0f4da" stroke="#231f20" stroke-linecap="round" stroke-linejoin="round" stroke-width="1.5"/><rect x="62.81" y="245.56" width="173.77" height="32.27" transform="translate(-24.04 15.3) rotate(-5.42)" fill="#f0f4da" stroke="#231f20" stroke-linecap="round" stroke-linejoin="round" stroke-width="1.5"/><rect x="68.51" y="81.06" width="141.14" height="137.42" rx="9.8" ry="9.8" transform="translate(-13.52 13.8) rotate(-5.42)" fill="#231f20" stroke="#231f20" stroke-linecap="round" stroke-linejoin="round" stroke-width="1.5"/><polygon points="33.4 241.44 36.16 270.5 64.73 285.96 61.68 253.83 33.4 241.44" fill="#f9b728" stroke="#231f20" stroke-linecap="round" stroke-linejoin="round" stroke-width="1.5"/><circle cx="222.64" cy="216.24" r="3.97" fill="#0ba65b" stroke="#231f20" stroke-linecap="round" stroke-linejoin="round" stroke-width="1.5"/><rect x="155.27" y="249.33" width="68.78" height="3.67" transform="translate(-22.86 19.03) rotate(-5.42)" fill="#231f20" stroke="#231f20" stroke-linecap="round" stroke-linejoin="round" stroke-width="1.5"/><rect x="70.85" y="257.17" width="72.5" height="8.55" transform="translate(-24.2 11.28) rotate(-5.42)" fill="#f0f4da" stroke="#231f20" stroke-linecap="round" stroke-linejoin="round" stroke-width="1.5"/><rect x="210.55" y="257.47" width="14.55" height="7.09" transform="translate(-23.67 21.73) rotate(-5.42)" fill="#f0f4da" stroke="#231f20" stroke-linecap="round" stroke-linejoin="round" stroke-width="1.5"/><rect x="193.02" y="259.13" width="14.55" height="7.09" transform="translate(-23.9 20.08) rotate(-5.42)" fill="#f0f4da" stroke="#231f20" stroke-linecap="round" stroke-linejoin="round" stroke-width="1.5"/><path d="M80.54,114.95c.34,3.59.14,6.25-4.5,6.69-.68.07-1.55.08-2.08.04l-.36-3.8c.25,0,.64,0,1.04-.04,1.2-.11,1.5-.54,1.36-1.96l-1.74-18.39,4.58-.43,1.7,17.89Z" fill="#f97428"/><path d="M87.32,114.55l-.05,5.72-4.67.44,1.11-24.11,6.82-.65,5.7,23.46-4.76.45-1.19-5.6-2.96.28ZM89.51,110.27c-.63-3.01-1.54-7.6-1.98-9.85l-.18.02c.07,1.67.02,7.07-.02,10.04l2.18-.21Z" fill="#f97428"/><path d="M100.35,119.03l-5.83-23.45,4.87-.46,1.69,8.73c.58,3.03,1.29,6.45,1.74,9.46l.18-.02c-.14-3.04-.06-6.34-.11-9.58l-.09-8.92,4.78-.45-1.26,24.12-5.96.57Z" fill="#f97428"/><path d="M115.09,111.92l-.05,5.72-4.67.44,1.11-24.11,6.82-.65,5.7,23.46-4.76.45-1.19-5.6-2.96.28ZM117.28,107.64c-.63-3.01-1.54-7.6-1.98-9.85l-.18.02c.08,1.67.02,7.07-.02,10.04l2.18-.21Z" fill="#f97428"/><path d="M128.68,108.94l.16,1.65c.15,1.57.6,2.25,1.65,2.15,1.05-.1,1.2-1.2,1.09-2.32-.21-2.24-.7-2.85-3.32-4.66-2.89-2.02-4.4-3.23-4.73-6.73-.32-3.4.51-6.64,5.01-7.06,4.78-.45,5.8,2.74,6.06,5.47l.13,1.37-4.32.41-.13-1.42c-.14-1.44-.44-2.14-1.35-2.05-.84.08-1.05.83-.92,2.18.14,1.43.46,2.11,2.58,3.46,3.76,2.42,5.16,3.84,5.53,7.76.35,3.73-.63,6.92-5.35,7.36-4.54.43-6.09-2.18-6.43-5.71l-.13-1.43,4.48-.42Z" fill="#f97428"/><path d="M149.53,106.53l.12,1.29c.29,3,.1,6.89-5.36,7.4-4.03.38-5.98-1.6-6.4-5.97l-1.11-11.67c-.39-4.14,1.46-6.51,5.28-6.88,5.03-.48,6.16,2.75,6.45,5.87l.14,1.49-4.61.44-.19-2.03c-.12-1.31-.47-1.95-1.42-1.86-.94.09-1.19.74-1.06,2.09l1.19,12.58c.12,1.27.42,2.12,1.45,2.02.99-.09,1.21-.85,1.07-2.37l-.19-1.98,4.63-.44Z" fill="#f97428"/><path d="M155.81,103.33l.98,10.34-4.57.43-2.26-23.79,5.94-.56c3.99-.38,6.12,1.19,6.52,5.35l.08.86c.32,3.39-.94,4.53-1.91,5.11,1.55.57,2.35,1.6,2.66,4.92.22,2.3.51,5.77.83,7.01l-4.43.42c-.4-1.05-.67-4.15-.96-7.18-.25-2.68-.6-3.1-2.34-2.94l-.54.05ZM155.48,99.72l.57-.05c1.53-.14,2.11-.69,1.9-2.9l-.11-1.15c-.15-1.6-.55-2.36-2.23-2.2l-.71.07.59,6.24Z" fill="#f97428"/><path d="M168.7,88.54l2.26,23.79-4.57.43-2.26-23.79,4.57-.43Z" fill="#f97428"/><path d="M171.57,88.27l6.1-.58c3.95-.37,6.11,1.53,6.51,5.74l.14,1.45c.4,4.17-.94,6.83-5.45,7.26l-1.34.13.89,9.35-4.58.43-2.26-23.79ZM177.17,98.56l.74-.07c1.74-.17,2.01-1.17,1.82-3.15l-.16-1.64c-.15-1.54-.6-2.5-2.12-2.35l-.96.09.68,7.12Z" fill="#f97428"/><path d="M188.27,90.77l-3.46.33-.38-4.05,11.52-1.09.38,4.05-3.49.33,1.87,19.75-4.57.43-1.87-19.75Z" fill="#f97428"/><path d="M83.48,145.91c.34,3.59.14,6.25-4.5,6.69-.68.07-1.55.08-2.08.04l-.36-3.8c.25,0,.64,0,1.04-.04,1.2-.11,1.5-.54,1.36-1.96l-1.74-18.39,4.58-.43,1.7,17.89Z" fill="#f38ba3"/><path d="M90.25,145.5l-.05,5.72-4.67.44,1.11-24.11,6.82-.65,5.7,23.46-4.76.45-1.19-5.6-2.96.28ZM92.45,141.22c-.63-3.01-1.54-7.6-1.98-9.85l-.18.02c.07,1.67.02,7.07-.02,10.04l2.18-.21Z" fill="#f38ba3"/><path d="M103.29,149.98l-5.83-23.45,4.87-.46,1.69,8.73c.58,3.03,1.29,6.45,1.74,9.46l.18-.02c-.14-3.04-.06-6.34-.11-9.58l-.09-8.92,4.78-.45-1.26,24.12-5.96.57Z" fill="#f38ba3"/><path d="M118.02,142.87l-.05,5.72-4.67.44,1.11-24.11,6.82-.65,5.7,23.46-4.76.45-1.19-5.6-2.96.28ZM120.22,138.59c-.63-3.01-1.54-7.6-1.98-9.85l-.18.02c.08,1.67.02,7.07-.02,10.04l2.18-.21Z" fill="#f38ba3"/><path d="M131.62,139.9l.16,1.65c.15,1.56.6,2.25,1.65,2.16,1.05-.1,1.2-1.2,1.09-2.32-.21-2.24-.7-2.85-3.32-4.66-2.89-2.02-4.4-3.23-4.73-6.73-.32-3.4.51-6.64,5.01-7.06,4.78-.45,5.8,2.74,6.06,5.47l.13,1.37-4.32.41-.13-1.43c-.14-1.44-.44-2.13-1.35-2.05-.84.08-1.05.83-.92,2.18.14,1.43.46,2.12,2.58,3.46,3.76,2.42,5.16,3.84,5.53,7.76.35,3.73-.63,6.92-5.35,7.36-4.54.43-6.09-2.18-6.43-5.71l-.13-1.43,4.48-.42Z" fill="#f38ba3"/><path d="M152.47,137.48l.12,1.29c.28,3,.1,6.89-5.36,7.4-4.03.38-5.98-1.6-6.4-5.97l-1.11-11.67c-.39-4.14,1.47-6.51,5.28-6.88,5.03-.48,6.16,2.75,6.45,5.87l.14,1.49-4.61.44-.19-2.03c-.12-1.31-.47-1.95-1.42-1.86-.94.09-1.19.74-1.06,2.09l1.19,12.58c.12,1.27.42,2.12,1.45,2.02.99-.09,1.21-.85,1.07-2.37l-.19-1.98,4.63-.44Z" fill="#f38ba3"/><path d="M158.75,134.29l.98,10.34-4.57.43-2.26-23.79,5.94-.56c3.99-.38,6.12,1.19,6.52,5.35l.08.86c.32,3.39-.94,4.53-1.91,5.11,1.55.57,2.35,1.6,2.66,4.92.22,2.3.51,5.77.83,7.01l-4.43.42c-.4-1.05-.67-4.15-.96-7.18-.25-2.68-.6-3.1-2.34-2.94l-.54.05ZM158.42,130.68l.57-.05c1.53-.14,2.11-.69,1.9-2.9l-.11-1.15c-.15-1.6-.55-2.36-2.23-2.2l-.71.07.59,6.24Z" fill="#f38ba3"/><path d="M171.64,119.49l2.26,23.79-4.57.43-2.26-23.79,4.57-.43Z" fill="#f38ba3"/><path d="M174.51,119.22l6.1-.58c3.95-.38,6.11,1.53,6.51,5.74l.14,1.45c.39,4.17-.94,6.83-5.45,7.26l-1.34.13.89,9.35-4.58.43-2.26-23.79ZM180.11,129.52l.74-.07c1.74-.17,2.01-1.17,1.82-3.15l-.16-1.64c-.15-1.54-.6-2.5-2.12-2.35l-.96.09.68,7.12Z" fill="#f38ba3"/><path d="M191.2,121.72l-3.46.33-.38-4.05,11.52-1.09.38,4.05-3.49.33,1.87,19.75-4.57.43-1.87-19.74Z" fill="#f38ba3"/><path d="M86.42,176.86c.34,3.59.14,6.25-4.5,6.69-.68.07-1.55.08-2.08.04l-.36-3.8c.25,0,.64,0,1.03-.04,1.2-.11,1.5-.54,1.36-1.96l-1.75-18.39,4.58-.43,1.7,17.89Z" fill="#0ba65b"/><path d="M93.19,176.46l-.05,5.72-4.67.44,1.11-24.11,6.82-.65,5.7,23.46-4.76.45-1.19-5.6-2.96.28ZM95.38,172.18c-.63-3.01-1.54-7.6-1.98-9.85l-.18.02c.07,1.67.02,7.07-.02,10.04l2.18-.21Z" fill="#0ba65b"/><path d="M106.22,180.93l-5.83-23.45,4.87-.46,1.69,8.73c.58,3.03,1.29,6.45,1.74,9.46l.18-.02c-.14-3.04-.06-6.34-.11-9.58l-.09-8.92,4.78-.45-1.26,24.12-5.96.57Z" fill="#0ba65b"/><path d="M120.96,173.82l-.05,5.72-4.67.44,1.11-24.11,6.82-.65,5.7,23.46-4.76.45-1.19-5.6-2.96.28ZM123.15,169.54c-.63-3.01-1.54-7.6-1.98-9.85l-.18.02c.08,1.67.02,7.07-.02,10.04l2.18-.21Z" fill="#0ba65b"/><path d="M134.56,170.85l.16,1.65c.15,1.57.61,2.25,1.65,2.16,1.05-.1,1.2-1.2,1.09-2.32-.21-2.25-.7-2.86-3.32-4.66-2.9-2.02-4.4-3.23-4.73-6.74-.32-3.4.51-6.64,5.01-7.06,4.78-.45,5.8,2.74,6.06,5.47l.13,1.37-4.32.41-.14-1.43c-.14-1.44-.44-2.13-1.35-2.05-.84.08-1.05.83-.92,2.18.14,1.43.46,2.12,2.58,3.46,3.76,2.42,5.16,3.84,5.53,7.76.35,3.73-.63,6.92-5.35,7.36-4.54.43-6.09-2.18-6.43-5.71l-.13-1.42,4.48-.42Z" fill="#0ba65b"/><path d="M155.4,168.43l.12,1.29c.28,3,.09,6.89-5.36,7.4-4.03.38-5.98-1.6-6.4-5.97l-1.11-11.67c-.39-4.14,1.47-6.51,5.28-6.88,5.03-.48,6.16,2.75,6.45,5.87l.14,1.49-4.61.44-.19-2.03c-.12-1.31-.47-1.95-1.42-1.86-.94.09-1.19.74-1.06,2.09l1.19,12.58c.12,1.27.41,2.12,1.45,2.02.99-.09,1.22-.85,1.07-2.37l-.19-1.98,4.63-.44Z" fill="#0ba65b"/><path d="M161.68,165.24l.98,10.34-4.57.43-2.26-23.79,5.94-.56c3.99-.38,6.12,1.19,6.52,5.35l.08.86c.32,3.39-.94,4.53-1.91,5.11,1.55.57,2.35,1.6,2.66,4.92.22,2.3.51,5.77.83,7.01l-4.43.42c-.4-1.05-.67-4.15-.96-7.18-.25-2.68-.6-3.1-2.34-2.94l-.54.05ZM161.35,161.63l.57-.05c1.53-.14,2.11-.69,1.9-2.9l-.11-1.15c-.15-1.6-.55-2.36-2.23-2.2l-.71.07.59,6.24Z" fill="#0ba65b"/><path d="M174.57,150.45l2.26,23.79-4.57.43-2.26-23.79,4.57-.43Z" fill="#0ba65b"/><path d="M177.44,150.17l6.1-.58c3.95-.38,6.11,1.53,6.51,5.74l.14,1.45c.4,4.17-.94,6.83-5.45,7.26l-1.34.13.89,9.35-4.58.43-2.26-23.79ZM183.04,160.47l.74-.07c1.74-.17,2.01-1.17,1.82-3.15l-.16-1.64c-.15-1.54-.6-2.5-2.12-2.35l-.96.09.67,7.12Z" fill="#0ba65b"/><path d="M194.14,152.67l-3.46.33-.38-4.05,11.52-1.09.38,4.05-3.49.33,1.87,19.74-4.57.43-1.87-19.74Z" fill="#0ba65b"/><path d="M89.35,207.81c.34,3.59.14,6.25-4.5,6.69-.68.07-1.55.08-2.08.04l-.36-3.8c.25,0,.64,0,1.03-.04,1.2-.11,1.5-.54,1.36-1.96l-1.74-18.39,4.58-.43,1.7,17.89Z" fill="#12b2e2"/><path d="M96.13,207.41l-.05,5.72-4.67.44,1.11-24.11,6.82-.65,5.7,23.46-4.76.45-1.19-5.6-2.96.28ZM98.32,203.13c-.63-3.01-1.54-7.6-1.98-9.86l-.18.02c.07,1.67.02,7.07-.02,10.04l2.18-.21Z" fill="#12b2e2"/><path d="M109.16,211.89l-5.83-23.45,4.87-.46,1.69,8.73c.58,3.03,1.29,6.45,1.74,9.46l.18-.02c-.14-3.04-.06-6.34-.11-9.58l-.09-8.92,4.78-.45-1.26,24.12-5.96.57Z" fill="#12b2e2"/><path d="M123.89,204.78l-.05,5.72-4.67.44,1.11-24.11,6.82-.65,5.7,23.46-4.76.45-1.19-5.6-2.96.28ZM126.09,200.5c-.63-3.01-1.54-7.6-1.98-9.85l-.18.02c.08,1.67.02,7.07-.02,10.04l2.18-.21Z" fill="#12b2e2"/><path d="M137.49,201.8l.16,1.65c.15,1.57.61,2.25,1.65,2.16,1.05-.1,1.2-1.2,1.09-2.32-.21-2.25-.7-2.86-3.32-4.66-2.9-2.02-4.4-3.23-4.73-6.73-.32-3.4.51-6.64,5.01-7.06,4.78-.45,5.8,2.74,6.06,5.47l.13,1.37-4.32.41-.14-1.42c-.14-1.44-.44-2.13-1.35-2.05-.84.08-1.05.83-.92,2.18.14,1.43.46,2.12,2.58,3.46,3.76,2.42,5.16,3.84,5.53,7.76.35,3.73-.63,6.91-5.35,7.36-4.54.43-6.09-2.18-6.43-5.71l-.13-1.42,4.48-.42Z" fill="#12b2e2"/><path d="M158.34,199.39l.12,1.29c.28,3,.09,6.89-5.36,7.4-4.03.38-5.98-1.6-6.4-5.97l-1.11-11.67c-.39-4.14,1.46-6.51,5.28-6.88,5.03-.48,6.16,2.75,6.45,5.87l.14,1.49-4.61.44-.19-2.03c-.12-1.31-.47-1.95-1.42-1.86-.94.09-1.19.74-1.06,2.09l1.19,12.58c.12,1.27.41,2.12,1.45,2.02.99-.09,1.22-.85,1.07-2.36l-.19-1.98,4.63-.44Z" fill="#12b2e2"/><path d="M164.62,196.19l.98,10.34-4.57.43-2.26-23.79,5.94-.56c3.99-.38,6.12,1.19,6.52,5.35l.08.86c.32,3.39-.94,4.53-1.91,5.11,1.55.57,2.35,1.6,2.66,4.92.22,2.3.51,5.77.83,7l-4.43.42c-.4-1.05-.67-4.15-.96-7.18-.25-2.68-.6-3.1-2.34-2.94l-.54.05ZM164.29,192.58l.57-.05c1.53-.14,2.11-.69,1.9-2.9l-.11-1.15c-.15-1.6-.55-2.36-2.23-2.2l-.71.07.59,6.24Z" fill="#12b2e2"/><path d="M177.51,181.4l2.26,23.79-4.57.43-2.26-23.79,4.57-.43Z" fill="#12b2e2"/><path d="M180.38,181.13l6.1-.58c3.95-.38,6.11,1.53,6.51,5.74l.14,1.45c.4,4.17-.94,6.83-5.45,7.26l-1.34.13.89,9.35-4.58.43-2.26-23.79ZM185.98,191.42l.74-.07c1.74-.17,2.01-1.17,1.82-3.15l-.16-1.64c-.15-1.54-.6-2.5-2.12-2.35l-.96.09.68,7.12Z" fill="#12b2e2"/><path d="M197.07,183.63l-3.46.33-.38-4.05,11.52-1.09.38,4.05-3.49.33,1.87,19.74-4.57.43-1.87-19.74Z" fill="#12b2e2"/><rect x="219.4" y="295.16" width="170.25" height="70.83" transform="translate(-137.45 412.28) rotate(-57.82)" fill="#f97428" stroke="#231f20" stroke-linecap="round" stroke-linejoin="round" stroke-width="1.5"/><path d="M336.8,259.66h0c-2.08-1.31-5.87-6.07-4.57-8.14l9.85-8.62,8.23-13.07c1.31-2.08,4.07-2.7,6.15-1.4h0c2.08,1.31,2.7,4.07,1.4,6.15l-8.16,12.97-4.21,12.31c-1.31,2.08-6.61,1.11-8.68-.2Z" fill="#7b5ea4" stroke="#231f20" stroke-linejoin="round" stroke-width="1.5"/><rect x="284.47" y="239.67" width="56.41" height="50" transform="translate(188.97 -125.86) rotate(32.18)" fill="#f9f4da" stroke="#231f20" stroke-linejoin="round" stroke-width="1.5"/><rect x="211.07" y="373.91" width="56.41" height="14.84" transform="translate(239.83 -68.85) rotate(32.18)" fill="#f9f4da" stroke="#231f20" stroke-linejoin="round" stroke-width="1.5"/><polygon points="267.09 390.07 219.35 360.03 238.03 346.64 272.64 291.63 275.49 270.81 323.23 300.85 319.02 320.81 284.62 375.48 267.09 390.07" fill="#f9f4da" stroke="#231f20" stroke-linejoin="round" stroke-width="1.5"/><polygon points="265.42 384.67 226.6 360.24 242.69 348.7 276.29 295.31 278.74 277.38 318.16 302.18 314.53 319.37 281.12 372.47 265.42 384.67" fill="#231f20" stroke="#231f20" stroke-linejoin="round" stroke-width="1.5"/><polygon points="269.4 377.87 276.08 373.01 242.77 352.05 236.03 356.87 269.4 377.87" fill="#7b5ea7" stroke="#231f20" stroke-linecap="round" stroke-linejoin="round" stroke-width="1.5"/><polygon points="312.68 316.28 315.43 303.28 281 281.62 279.15 295.18 312.68 316.28" fill="#12b2e2" stroke="#231f20" stroke-linecap="round" stroke-linejoin="round" stroke-width="1.5"/><rect x="289.45" y="244.96" width="46.44" height="39.41" transform="translate(188.97 -125.86) rotate(32.18)" fill="#231f20" stroke="#231f20" stroke-linejoin="round" stroke-width="1.5"/><rect x="293.77" y="251.8" width="37.92" height="25.81" rx="9.47" ry="9.47" transform="translate(189 -125.89) rotate(32.18)" fill="#7b5ea4" stroke="#231f20" stroke-linejoin="round" stroke-width="1.5"/><circle cx="309.57" cy="259.67" r=".62" fill="#231f20"/><circle cx="312.59" cy="261.58" r=".62" fill="#231f20"/><circle cx="315.62" cy="263.48" r=".62" fill="#231f20"/><circle cx="318.64" cy="265.38" r=".62" fill="#231f20"/><circle cx="306.83" cy="264.04" r=".62" fill="#231f20"/><circle cx="309.85" cy="265.94" r=".62" fill="#231f20"/><circle cx="312.87" cy="267.84" r=".62" fill="#231f20"/><circle cx="315.89" cy="269.74" r=".62" fill="#231f20"/><circle cx="309.71" cy="262.81" r=".62" fill="#231f20"/><circle cx="312.73" cy="264.71" r=".62" fill="#231f20"/><circle cx="315.75" cy="266.61" r=".62" fill="#231f20"/><rect x="273.42" y="304.48" width="10.04" height="8.92" rx="1.54" ry="1.54" transform="translate(207.29 -100.83) rotate(32.18)" fill="#f9b728" stroke="#231f20" stroke-linecap="round" stroke-linejoin="round" stroke-width="1.5"/><rect x="284.25" y="311.29" width="10.04" height="8.92" rx="1.54" ry="1.54" transform="translate(212.58 -105.55) rotate(32.18)" fill="#f9b728" stroke="#231f20" stroke-linecap="round" stroke-linejoin="round" stroke-width="1.5"/><rect x="295.08" y="318.1" width="10.04" height="8.92" rx="1.54" ry="1.54" transform="translate(217.87 -110.27) rotate(32.18)" fill="#f9b728" stroke="#231f20" stroke-linecap="round" stroke-linejoin="round" stroke-width="1.5"/><rect x="274.58" y="302.63" width="10.04" height="8.92" rx="1.54" ry="1.54" transform="translate(206.49 -101.73) rotate(32.18)" fill="#f9f4da" stroke="#231f20" stroke-linejoin="round" stroke-width="1.5"/><rect x="285.41" y="309.45" width="10.04" height="8.92" rx="1.54" ry="1.54" transform="translate(211.78 -106.45) rotate(32.18)" fill="#f9f4da" stroke="#231f20" stroke-linejoin="round" stroke-width="1.5"/><rect x="296.23" y="316.26" width="10.04" height="8.92" rx="1.54" ry="1.54" transform="translate(217.07 -111.17) rotate(32.18)" fill="#f9f4da" stroke="#231f20" stroke-linejoin="round" stroke-width="1.5"/><rect x="266.26" y="315.86" width="10.04" height="8.92" rx="1.54" ry="1.54" transform="translate(212.25 -95.27) rotate(32.18)" fill="#f9b728" stroke="#231f20" stroke-linecap="round" stroke-linejoin="round" stroke-width="1.5"/><rect x="277.09" y="322.67" width="10.04" height="8.92" rx="1.54" ry="1.54" transform="translate(217.54 -99.99) rotate(32.18)" fill="#f9b728" stroke="#231f20" stroke-linecap="round" stroke-linejoin="round" stroke-width="1.5"/><rect x="287.91" y="329.49" width="10.04" height="8.92" rx="1.54" ry="1.54" transform="translate(222.83 -104.71) rotate(32.18)" fill="#f9b728" stroke="#231f20" stroke-linecap="round" stroke-linejoin="round" stroke-width="1.5"/><rect x="267.42" y="314.02" width="10.04" height="8.92" rx="1.54" ry="1.54" transform="translate(211.45 -96.17) rotate(32.18)" fill="#f9f4da" stroke="#231f20" stroke-linejoin="round" stroke-width="1.5"/><rect x="278.24" y="320.83" width="10.04" height="8.92" rx="1.54" ry="1.54" transform="translate(216.74 -100.89) rotate(32.18)" fill="#f9f4da" stroke="#231f20" stroke-linejoin="round" stroke-width="1.5"/><rect x="289.07" y="327.64" width="10.04" height="8.92" rx="1.54" ry="1.54" transform="translate(222.03 -105.61) rotate(32.18)" fill="#f9f4da" stroke="#231f20" stroke-linejoin="round" stroke-width="1.5"/><rect x="259.1" y="327.24" width="10.04" height="8.92" rx="1.54" ry="1.54" transform="translate(217.21 -89.7) rotate(32.18)" fill="#f9b728" stroke="#231f20" stroke-linecap="round" stroke-linejoin="round" stroke-width="1.5"/><rect x="269.92" y="334.06" width="10.04" height="8.92" rx="1.54" ry="1.54" transform="translate(222.5 -94.42) rotate(32.18)" fill="#f9b728" stroke="#231f20" stroke-linecap="round" stroke-linejoin="round" stroke-width="1.5"/><rect x="280.75" y="340.87" width="10.04" height="8.92" rx="1.54" ry="1.54" transform="translate(227.8 -99.14) rotate(32.18)" fill="#f9b728" stroke="#231f20" stroke-linecap="round" stroke-linejoin="round" stroke-width="1.5"/><rect x="260.25" y="325.4" width="10.04" height="8.92" rx="1.54" ry="1.54" transform="translate(216.41 -90.6) rotate(32.18)" fill="#f9f4da" stroke="#231f20" stroke-linejoin="round" stroke-width="1.5"/><rect x="271.08" y="332.22" width="10.04" height="8.92" rx="1.54" ry="1.54" transform="translate(221.7 -95.32) rotate(32.18)" fill="#f9f4da" stroke="#231f20" stroke-linejoin="round" stroke-width="1.5"/><rect x="281.91" y="339.03" width="10.04" height="8.92" rx="1.54" ry="1.54" transform="translate(226.99 -100.04) rotate(32.18)" fill="#f9f4da" stroke="#231f20" stroke-linejoin="round" stroke-width="1.5"/><rect x="251.76" y="338.9" width="10.04" height="8.92" rx="1.54" ry="1.54" transform="translate(222.3 -84.01) rotate(32.18)" fill="#ea203d" stroke="#231f20" stroke-linecap="round" stroke-linejoin="round" stroke-width="1.5"/><rect x="262.59" y="345.72" width="10.04" height="8.92" rx="1.54" ry="1.54" transform="translate(227.59 -88.73) rotate(32.18)" fill="#f9b728" stroke="#231f20" stroke-linecap="round" stroke-linejoin="round" stroke-width="1.5"/><rect x="273.41" y="352.53" width="10.04" height="8.92" rx="1.54" ry="1.54" transform="translate(232.88 -93.45) rotate(32.18)" fill="#ea203d" stroke="#231f20" stroke-linecap="round" stroke-linejoin="round" stroke-width="1.5"/><rect x="252.92" y="337.06" width="10.04" height="8.92" rx="1.54" ry="1.54" transform="translate(221.49 -84.91) rotate(32.18)" fill="#f97428" stroke="#231f20" stroke-linejoin="round" stroke-width="1.5"/><rect x="263.74" y="343.88" width="10.04" height="8.92" rx="1.54" ry="1.54" transform="translate(226.79 -89.63) rotate(32.18)" fill="#f9f4da" stroke="#231f20" stroke-linejoin="round" stroke-width="1.5"/><rect x="274.57" y="350.69" width="10.04" height="8.92" rx="1.54" ry="1.54" transform="translate(232.08 -94.35) rotate(32.18)" fill="#f97428" stroke="#231f20" stroke-linejoin="round" stroke-width="1.5"/><rect x="240.79" y="368.8" width="16.56" height="2.83" rx="1.41" ry="1.41" transform="translate(235.41 -75.77) rotate(32.18)" fill="#7b5ea7" stroke="#231f20" stroke-linecap="round" stroke-linejoin="round" stroke-width="1.5"/><path d="M355.87,277.49s-.07-.07-.11-.11c-.05.02-.1.03-.12.06-.07.07-.13.14-.19.22-1.32,1.7-3.05,2.95-5.33,3.67-1.26.4-2.54.81-3.65,1.4-2.77,1.46-3.07,4.55-.82,7.4.07.09.17.18.38.38-.42-1.51-.36-2.73.48-3.69.8-.92,1.89-1.5,3.19-1.84-.02.15-.07.25-.14.35-.61.89-.81,1.88-.28,3.1.25.56.42,1.14.61,1.71.19.58.05,1.05-.34,1.42-.19.18-.4.34-.65.54.7.35,1.37.64,2.01.54.61-.1,1.16-.33,1.89-.55-.23.43-.37.78-.59,1.08-.23.31-.53.57-.81.86,2.2.96,5.22.11,6.57-1.86.98-1.44,1.09-4.38.17-5.25-.03.18-.06.34-.08.51-.14,1.03-.55,1.92-1.31,2.61-.76.69-2.52.89-3.63.36.09-.06.15-.13.24-.16,2.06-.8,3.06-2.36,3.44-4.36.5-2.68,0-5.49-.92-8.36Z" fill="#f9f4da"/><polygon points="208.45 338.82 196.09 323.74 200.5 320.13 179.74 311.94 192.1 327.02 187.69 330.63 208.45 338.82" fill="#f38ba3" stroke="#231f20" stroke-linecap="round" stroke-linejoin="round" stroke-width="1.5"/><polygon points="193.01 351.1 173.88 347.36 174.97 341.77 153.75 348.7 172.89 352.44 171.79 358.03 193.01 351.1" fill="#f38ba3" stroke="#231f20" stroke-linecap="round" stroke-linejoin="round" stroke-width="1.5"/><polygon points="196.08 370.27 178.59 378.89 176.07 373.78 163.4 392.15 180.88 383.53 183.4 388.64 196.08 370.27" fill="#f38ba3" stroke="#231f20" stroke-linecap="round" stroke-linejoin="round" stroke-width="1.5"/><polygon points="272.79 39.24 253 50.06 249.84 44.27 236.08 66.12 255.87 55.3 259.03 61.09 272.79 39.24" fill="#f9b728" stroke="#231f20" stroke-linecap="round" stroke-linejoin="round" stroke-width="1.5"/><polygon points="249.63 .51 236.18 18.6 230.89 14.67 227.52 40.26 240.97 22.17 246.26 26.1 249.63 .51" fill="#f9b728" stroke="#231f20" stroke-linecap="round" stroke-linejoin="round" stroke-width="1.5"/><polygon points="185.64 .51 194.54 21.23 188.48 23.83 208.93 39.59 200.03 18.87 206.09 16.27 185.64 .51" fill="#f9b728" stroke="#231f20" stroke-linecap="round" stroke-linejoin="round" stroke-width="1.5"/></svg>